<?xml version="1.0" encoding="UTF-8"?>
<svg width="1024" height="1024" viewBox="0 0 1024 1024" fill="none" xmlns="http://www.w3.org/2000/svg" role="img" aria-labelledby="title desc">
  <title id="title">OmniPublish Square Logo</title>
  <desc id="desc">Square icon for OmniPublish.</desc>
  <defs>
    <linearGradient id="bg" x1="160" y1="136" x2="876" y2="884" gradientUnits="userSpaceOnUse">
      <stop stop-color="#FCFEFF"/>
      <stop offset="1" stop-color="#F4F0E8"/>
    </linearGradient>
    <linearGradient id="ring" x1="196" y1="194" x2="828" y2="828" gradientUnits="userSpaceOnUse">
      <stop stop-color="#17386F"/>
      <stop offset="0.5" stop-color="#2E9FA4"/>
      <stop offset="1" stop-color="#D8B65B"/>
    </linearGradient>
    <filter id="shadow" x="104" y="104" width="816" height="816" filterUnits="userSpaceOnUse">
      <feDropShadow dx="0" dy="24" stdDeviation="26" flood-color="#1D2F57" flood-opacity="0.16"/>
    </filter>
  </defs>

  <rect width="1024" height="1024" rx="208" fill="url(#bg)"/>
  <g filter="url(#shadow)">
    <circle cx="512" cy="512" r="300" fill="#FBFBF7"/>
    <circle cx="512" cy="512" r="300" stroke="url(#ring)" stroke-width="28"/>
    <circle cx="512" cy="512" r="244" stroke="url(#ring)" stroke-width="16" opacity="0.42"/>
    <circle cx="512" cy="512" r="186" stroke="url(#ring)" stroke-width="12" opacity="0.32"/>

    <circle cx="512" cy="512" r="136" fill="none" stroke="#1D2F57" stroke-width="22"/>
    <circle cx="512" cy="512" r="106" fill="none" stroke="#2E9FA4" stroke-width="12" opacity="0.9"/>

    <path d="M512 242V184" stroke="#D8B65B" stroke-width="10" stroke-linecap="round"/>
    <path d="M512 840V784" stroke="#2E9FA4" stroke-width="10" stroke-linecap="round"/>
    <path d="M242 512H306" stroke="#17386F" stroke-width="10" stroke-linecap="round"/>
    <path d="M718 512H782" stroke="#D8B65B" stroke-width="10" stroke-linecap="round"/>
    <path d="M312 314L358 350" stroke="#17386F" stroke-width="10" stroke-linecap="round"/>
    <path d="M712 314L666 350" stroke="#2E9FA4" stroke-width="10" stroke-linecap="round"/>
    <path d="M312 710L358 674" stroke="#2E9FA4" stroke-width="10" stroke-linecap="round"/>
    <path d="M712 710L666 674" stroke="#D8B65B" stroke-width="10" stroke-linecap="round"/>

    <circle cx="512" cy="184" r="12" fill="#D8B65B" stroke="#1D2F57" stroke-width="4"/>
    <circle cx="512" cy="840" r="12" fill="#2E9FA4" stroke="#1D2F57" stroke-width="4"/>
    <circle cx="242" cy="512" r="12" fill="#17386F" stroke="#1D2F57" stroke-width="4"/>
    <circle cx="782" cy="512" r="12" fill="#D8B65B" stroke="#1D2F57" stroke-width="4"/>
    <circle cx="358" cy="350" r="12" fill="#17386F" stroke="#1D2F57" stroke-width="4"/>
    <circle cx="666" cy="350" r="12" fill="#2E9FA4" stroke="#1D2F57" stroke-width="4"/>
    <circle cx="358" cy="674" r="12" fill="#2E9FA4" stroke="#1D2F57" stroke-width="4"/>
    <circle cx="666" cy="674" r="12" fill="#D8B65B" stroke="#1D2F57" stroke-width="4"/>

    <path d="M356 512H668" stroke="#1D2F57" stroke-width="12" stroke-linecap="round"/>
    <path d="M512 392C482 422 468 464 468 512C468 560 482 602 512 632" stroke="#1D2F57" stroke-width="10" stroke-linecap="round"/>
    <path d="M512 392C542 422 556 464 556 512C556 560 542 602 512 632" stroke="#1D2F57" stroke-width="10" stroke-linecap="round"/>
    <path d="M438 448C466 464 488 484 512 512C536 484 558 464 586 448" stroke="#2E9FA4" stroke-width="8" stroke-linecap="round" opacity="0.88"/>
    <path d="M438 576C466 560 488 540 512 512C536 540 558 560 586 576" stroke="#D8B65B" stroke-width="8" stroke-linecap="round" opacity="0.88"/>
  </g>
</svg>
