<?xml version="1.0" encoding="UTF-8"?>
<svg width="1800" height="520" viewBox="0 0 1800 520" fill="none" xmlns="http://www.w3.org/2000/svg" role="img" aria-labelledby="title desc">
  <title id="title">OmniPublish Dark Logo</title>
  <desc id="desc">Dark background version of the OmniPublish brand.</desc>
  <defs>
    <linearGradient id="ring" x1="86" y1="92" x2="354" y2="356" gradientUnits="userSpaceOnUse">
      <stop stop-color="#68E2E1"/>
      <stop offset="0.5" stop-color="#59E3C7"/>
      <stop offset="1" stop-color="#F0D277"/>
    </linearGradient>
    <linearGradient id="wordmark" x1="470" y1="130" x2="1540" y2="130" gradientUnits="userSpaceOnUse">
      <stop stop-color="#F7FBFF"/>
      <stop offset="1" stop-color="#DDFCF6"/>
    </linearGradient>
  </defs>

  <rect width="1800" height="520" fill="#07101F"/>

  <g>
    <circle cx="220" cy="260" r="150" fill="#0D172B"/>
    <circle cx="220" cy="260" r="150" stroke="url(#ring)" stroke-width="16"/>
    <circle cx="220" cy="260" r="122" stroke="url(#ring)" stroke-width="10" opacity="0.56"/>
    <circle cx="220" cy="260" r="92" stroke="url(#ring)" stroke-width="8" opacity="0.42"/>

    <circle cx="220" cy="260" r="66" fill="none" stroke="#F7FBFF" stroke-width="16"/>
    <circle cx="220" cy="260" r="52" fill="none" stroke="#68E2E1" stroke-width="8" opacity="0.9"/>

    <path d="M220 150V105" stroke="#F0D277" stroke-width="8" stroke-linecap="round"/>
    <path d="M220 370V315" stroke="#59E3C7" stroke-width="8" stroke-linecap="round"/>
    <path d="M110 260H154" stroke="#68E2E1" stroke-width="8" stroke-linecap="round"/>
    <path d="M286 260H330" stroke="#F0D277" stroke-width="8" stroke-linecap="round"/>
    <path d="M142 182L175 206" stroke="#68E2E1" stroke-width="8" stroke-linecap="round"/>
    <path d="M298 178L267 204" stroke="#59E3C7" stroke-width="8" stroke-linecap="round"/>
    <path d="M142 338L175 314" stroke="#59E3C7" stroke-width="8" stroke-linecap="round"/>
    <path d="M298 342L268 316" stroke="#F0D277" stroke-width="8" stroke-linecap="round"/>

    <circle cx="220" cy="104" r="10" fill="#F0D277" stroke="#F7FBFF" stroke-width="4"/>
    <circle cx="220" cy="370" r="10" fill="#59E3C7" stroke="#F7FBFF" stroke-width="4"/>
    <circle cx="108" cy="260" r="10" fill="#68E2E1" stroke="#F7FBFF" stroke-width="4"/>
    <circle cx="332" cy="260" r="10" fill="#F0D277" stroke="#F7FBFF" stroke-width="4"/>
    <circle cx="175" cy="206" r="10" fill="#68E2E1" stroke="#F7FBFF" stroke-width="4"/>
    <circle cx="267" cy="204" r="10" fill="#59E3C7" stroke="#F7FBFF" stroke-width="4"/>
    <circle cx="175" cy="314" r="10" fill="#59E3C7" stroke="#F7FBFF" stroke-width="4"/>
    <circle cx="268" cy="316" r="10" fill="#F0D277" stroke="#F7FBFF" stroke-width="4"/>

    <path d="M166 260H274" stroke="#F7FBFF" stroke-width="10" stroke-linecap="round"/>
    <path d="M220 206C204 222 196 240 196 260C196 280 204 298 220 314" stroke="#F7FBFF" stroke-width="8" stroke-linecap="round"/>
    <path d="M220 206C236 222 244 240 244 260C244 280 236 298 220 314" stroke="#F7FBFF" stroke-width="8" stroke-linecap="round"/>
    <path d="M180 232C194 240 206 248 220 260C234 248 246 240 260 232" stroke="#68E2E1" stroke-width="6" stroke-linecap="round" opacity="0.9"/>
    <path d="M180 288C194 280 206 272 220 260C234 272 246 280 260 288" stroke="#F0D277" stroke-width="6" stroke-linecap="round" opacity="0.9"/>
  </g>

  <text x="470" y="246" fill="url(#wordmark)" font-family="Inter, Segoe UI, Arial, sans-serif" font-size="104" font-weight="800" letter-spacing="-2.2">
    OMNIPUBLISH
  </text>
  <text x="472" y="310" fill="#B1C5D8" font-family="Inter, Segoe UI, Arial, sans-serif" font-size="32" font-weight="500" letter-spacing="0.35">
    CONTENT DISTRIBUTION PLATFORM
  </text>
</svg>
